# xmcd
#
# Track frame offsets: 
#        150
#        19527
#        32383
#        52927
#
# Disc length: 895 seconds
#
# Revision: 0
# Processed by: cddbd v1.4PL0 Copyright (c) Steve Scherf et al.
# Submitted via: ExactAudioCopy v0.90b4
#
DISCID=1e037d04
DTITLE=Chris Blair - A Tribute to the Heros of September 11, 2002
DYEAR=2002
DGENRE=Country
TTITLE0=Just Like You (with Special Introduction)
TTITLE1=Hummingbird
TTITLE2=Let Me Treat You To Love
TTITLE3=God Bless The USA
EXTD=
EXTT0=
EXTT1=
EXTT2=
EXTT3=
PLAYORDER=
